<?xml version="1.0" encoding="UTF-8" standalone="no"?>
<!-- Created with Inkscape (http://www.inkscape.org/) -->

<svg
   width="3000mm"
   height="1000mm"
   viewBox="0 0 3000 1000"
   version="1.1"
   id="svg1"
   xml:space="preserve"
   sodipodi:docname="zaporion-horizontal-logo-dark.svg"
   inkscape:version="1.4.3 (0d15f75, 2025-12-25)"
   inkscape:export-filename="zaporion_horizonta_darkl_1200×400-72dpi.png"
   inkscape:export-xdpi="10.16"
   inkscape:export-ydpi="10.16"
   inkscape:export-batch-name="zaporion-horizontal-dark-"
   inkscape:export-batch-path="horizontal-dark"
   xmlns:inkscape="http://www.inkscape.org/namespaces/inkscape"
   xmlns:sodipodi="http://sodipodi.sourceforge.net/DTD/sodipodi-0.dtd"
   xmlns:xlink="http://www.w3.org/1999/xlink"
   xmlns="http://www.w3.org/2000/svg"
   xmlns:svg="http://www.w3.org/2000/svg"><sodipodi:namedview
     id="namedview1"
     pagecolor="#ffffff"
     bordercolor="#000000"
     borderopacity="0.25"
     inkscape:showpageshadow="2"
     inkscape:pageopacity="0.0"
     inkscape:pagecheckerboard="0"
     inkscape:deskcolor="#d1d1d1"
     inkscape:document-units="mm"
     showgrid="true"
     inkscape:zoom="0.0625"
     inkscape:cx="3008"
     inkscape:cy="3032"
     inkscape:window-width="1691"
     inkscape:window-height="920"
     inkscape:window-x="0"
     inkscape:window-y="38"
     inkscape:window-maximized="0"
     inkscape:current-layer="layer1"
     inkscape:export-bgcolor="#ffffff5d"><inkscape:grid
       id="grid1"
       units="mm"
       originx="0"
       originy="0"
       spacingx="0.99999997"
       spacingy="0.99999999"
       empcolor="#0099e5"
       empopacity="0.30196078"
       color="#0099e5"
       opacity="0.14901961"
       empspacing="5"
       enabled="true"
       visible="true" /></sodipodi:namedview><defs
     id="defs1"><linearGradient
       id="swatch13"><stop
         style="stop-color:#0064c8;stop-opacity:1;"
         offset="0"
         id="stop13" /><stop
         style="stop-color:#003264;stop-opacity:1;"
         offset="1"
         id="stop17" /></linearGradient><linearGradient
       id="swatch12"
       inkscape:swatch="solid"><stop
         style="stop-color:#003264;stop-opacity:1;"
         offset="0"
         id="stop12" /></linearGradient><linearGradient
       id="swatch11"
       inkscape:swatch="solid"><stop
         style="stop-color:#0064c8;stop-opacity:1;"
         offset="0"
         id="stop11" /></linearGradient><color-profile
       name="sRGB-IEC61966-2.1"
       xlink:href="file:///System/Library/ColorSync/Profiles/sRGB%20Profile.icc"
       id="color-profile1" /><linearGradient
       id="linearGradient42"
       inkscape:collect="always"><stop
         style="stop-color:#003264;stop-opacity:1;"
         offset="0"
         id="stop42" /><stop
         style="stop-color:#0064c8;stop-opacity:1;"
         offset="1"
         id="stop43" /></linearGradient><rect
       x="3632.8928"
       y="-228.96383"
       width="7067.3503"
       height="3297.0792"
       id="rect35" /><rect
       x="4045.0277"
       y="747.94852"
       width="5449.3392"
       height="1694.3324"
       id="rect33" /><rect
       x="3678.6856"
       y="442.66341"
       width="6472.0443"
       height="2396.4881"
       id="rect32" /><rect
       x="3739.7426"
       y="412.1349"
       width="6792.5937"
       height="2014.8817"
       id="rect31" /><linearGradient
       id="swatch25"><stop
         style="stop-color:#003264;stop-opacity:1;"
         offset="0"
         id="stop26" /></linearGradient><linearGradient
       id="linearGradient13"><stop
         style="stop-color:#003264;stop-opacity:1;"
         offset="0"
         id="stop15" /><stop
         style="stop-color:#0664b4;stop-opacity:0;"
         offset="1"
         id="stop16" /></linearGradient><linearGradient
       inkscape:collect="always"
       xlink:href="#linearGradient42"
       id="linearGradient43"
       x1="2932.0728"
       y1="246.35872"
       x2="1704.3177"
       y2="258.47473"
       gradientUnits="userSpaceOnUse"
       gradientTransform="translate(-8.5214977,20.193338)" /><linearGradient
       id="swatch32"><stop
         style="stop-color:#3296fa;stop-opacity:1;"
         offset="0"
         id="stop32" /><stop
         style="stop-color:#96fafa;stop-opacity:1;"
         offset="1"
         id="stop33" /></linearGradient><linearGradient
       inkscape:collect="always"
       xlink:href="#swatch32"
       id="linearGradient270"
       gradientUnits="userSpaceOnUse"
       x1="666.67004"
       y1="2247.6006"
       x2="654.7113"
       y2="1859.2158"
       gradientTransform="matrix(0.70000382,0,0,0.70000382,859.65128,-1023.6988)" /><linearGradient
       inkscape:collect="always"
       xlink:href="#swatch32"
       id="linearGradient350"
       gradientUnits="userSpaceOnUse"
       x1="1984.8479"
       y1="2213.1157"
       x2="1984.9261"
       y2="1830.4426"
       gradientTransform="matrix(0.70000134,0,0,0.70000134,870.57738,-1012.8348)" /><linearGradient
       inkscape:collect="always"
       xlink:href="#swatch32"
       id="linearGradient353"
       gradientUnits="userSpaceOnUse"
       x1="1406.672"
       y1="2496.501"
       x2="1399.3219"
       y2="2370.8472"
       gradientTransform="matrix(0.69990871,0,0,0.69990871,859.1981,-1024.073)" /><linearGradient
       inkscape:collect="always"
       xlink:href="#linearGradient357"
       id="linearGradient355"
       gradientUnits="userSpaceOnUse"
       gradientTransform="matrix(0.875,0,0,0.875,62.500045,62.500042)"
       x1="104.03867"
       y1="875.59607"
       x2="904.0387"
       y2="96.13324" /><linearGradient
       id="linearGradient357"><stop
         style="stop-color:#003296;stop-opacity:1;"
         offset="0"
         id="stop356" /><stop
         style="stop-color:#64c8fa;stop-opacity:1;"
         offset="1"
         id="stop357" /></linearGradient></defs><g
     inkscape:label="Layer 1"
     inkscape:groupmode="layer"
     id="layer1"><rect
       style="fill:#000032;stroke:#2187e6;stroke-width:13.812;paint-order:markers fill stroke"
       id="rect3"
       width="2987.9399"
       height="986.18805"
       x="6.9059596"
       y="6.9059596" /><text
       xml:space="preserve"
       style="font-style:normal;font-variant:normal;font-weight:500;font-stretch:normal;font-size:126.21px;line-height:0.8;font-family:'Avenir Next';-inkscape-font-specification:'Avenir Next, Medium';font-variant-ligatures:normal;font-variant-caps:normal;font-variant-numeric:normal;font-variant-east-asian:normal;letter-spacing:0.00079588px;writing-mode:lr-tb;direction:ltr;fill:url(#linearGradient353);fill-opacity:1;stroke-width:2.85764;stroke-dasharray:none;paint-order:markers fill stroke"
       x="1141.3088"
       y="735.94745"
       id="text4-0"
       inkscape:label="innovation text"><tspan
         sodipodi:role="line"
         id="tspan4-7"
         style="font-style:normal;font-variant:normal;font-weight:500;font-stretch:normal;font-size:126.21px;font-family:'Avenir Next';-inkscape-font-specification:'Avenir Next, Medium';font-variant-ligatures:normal;font-variant-caps:normal;font-variant-numeric:normal;font-variant-east-asian:normal;fill:url(#linearGradient353);fill-opacity:1;stroke-width:2.85764;stroke-dasharray:none;paint-order:markers fill stroke"
         x="1141.3088"
         y="735.94745">INNOVATION AT SPEED</tspan></text><rect
       style="fill:#000000;stroke-width:2.858;paint-order:markers fill stroke;fill-opacity:0"
       id="rect2"
       width="3000"
       height="1000"
       x="-5.9868374"
       y="8.9802551"
       inkscape:label="background" /><text
       xml:space="preserve"
       style="font-style:normal;font-variant:normal;font-weight:bold;font-stretch:normal;font-size:369.652px;line-height:0.8;font-family:'Avenir Next';-inkscape-font-specification:'Avenir Next, Bold';font-variant-ligatures:normal;font-variant-caps:normal;font-variant-numeric:normal;font-variant-east-asian:normal;letter-spacing:0.00271677px;writing-mode:lr-tb;direction:ltr;display:inline;mix-blend-mode:normal;fill:url(#linearGradient270);fill-rule:nonzero;stroke-width:9.75262"
       x="956.07574"
       y="532.55768"
       id="text2-9"
       inkscape:label="orion text"><tspan
         sodipodi:role="line"
         id="tspan2-9"
         style="font-style:normal;font-variant:normal;font-weight:bold;font-stretch:normal;font-size:369.652px;font-family:'Avenir Next';-inkscape-font-specification:'Avenir Next, Bold';font-variant-ligatures:normal;font-variant-caps:normal;font-variant-numeric:normal;font-variant-east-asian:normal;fill:url(#linearGradient270);fill-rule:nonzero;stroke-width:9.75262"
         x="0"
         y="0">ZAP</tspan></text><text
       xml:space="preserve"
       style="font-style:normal;font-variant:normal;font-weight:normal;font-stretch:normal;font-size:362.903px;line-height:0.8;font-family:'Avenir Next';-inkscape-font-specification:'Avenir Next, Normal';font-variant-ligatures:normal;font-variant-caps:normal;font-variant-numeric:normal;font-variant-east-asian:normal;letter-spacing:0.00266716px;writing-mode:lr-tb;direction:ltr;display:inline;fill:url(#linearGradient350);fill-opacity:1;stroke-width:9.57462;stroke-dasharray:none"
       x="1687.9154"
       y="540.87628"
       id="text3-1"
       inkscape:label="zap text"><tspan
         sodipodi:role="line"
         id="tspan3-7"
         style="font-style:normal;font-variant:normal;font-weight:normal;font-stretch:normal;font-size:362.903px;font-family:'Avenir Next';-inkscape-font-specification:'Avenir Next, Normal';font-variant-ligatures:normal;font-variant-caps:normal;font-variant-numeric:normal;font-variant-east-asian:normal;fill:url(#linearGradient350);fill-opacity:1;stroke-width:9.57462;stroke-dasharray:none"
         x="1687.9154"
         y="540.87628">ORION</tspan></text><path
       style="fill:url(#linearGradient355);stroke-width:8.31082;stroke-dasharray:none"
       d="m 156.44729,843.30445 c -3.95528,-3.79862 -6.51248,-8.52621 -6.44602,-11.91638 0.10318,-5.34289 17.43966,-41.811 87.82459,-184.76458 17.05298,-34.63432 47.50634,-96.50417 67.67418,-137.48838 l 36.66796,-74.51667 -95.46684,-2.15845 -95.46656,-2.15817 21.41909,-27.65959 c 21.80871,-28.1617 56.84616,-70.13132 68.85557,-82.47904 l 6.6402,-6.82752 155.81139,3.21195 155.81132,3.21209 -24.35531,36.9719 c -28.92925,43.9159 -55.52589,79.52133 -83.09476,111.23784 -22.37004,25.73578 -47.1107,52.10153 -47.07269,50.16365 0,-1.50038 50.35786,-94.08802 74.99226,-137.96052 9.59917,-17.09344 17.45961,-31.4853 17.46913,-31.98195 0,-1.65732 -224.97097,-4.6494 -227.8381,-3.02981 -1.5519,0.87717 -12.26064,12.82561 -23.79671,26.55212 l -20.97445,24.95675 91.22379,2.08782 c 50.17397,1.14814 91.21525,2.55248 91.20489,3.12004 0,1.26126 -66.33641,137.13844 -91.67893,187.85694 -10.09393,20.20088 -24.2389,48.53499 -31.43364,62.96444 -7.19481,14.42952 -17.19186,33.54736 -22.21716,42.48419 -5.0246,8.93683 -8.3986,16.205 -7.497,16.15145 0.90062,-0.056 6.97529,-5.9038 13.49817,-13.00068 67.08429,-72.98221 184.22411,-197.15707 319.48406,-338.67236 35.44254,-37.08201 64.1291,-68.34695 63.74564,-69.47766 -0.74284,-2.1861 -44.00606,-18.09759 -87.22623,-32.07722 l -26.10258,-8.44333 9.3261,-3.48418 c 12.69163,-4.74173 96.40638,-31.67 142.86846,-45.9563 34.94164,-10.7437 105.18846,-33.5432 139.74907,-45.3564 7.9219,-2.7081 15.94474,-4.8979 17.82914,-4.8661 3.02631,0.048 2.91571,17.2723 -0.95165,147.60584 -2.40422,81.1517 -4.50107,147.7105 -4.6522,147.9086 -0.14686,0.19824 -12.84626,-13.73589 -28.21329,-30.96436 -15.36619,-17.2284 -28.98357,-32.38368 -30.25897,-33.67861 -1.27652,-1.295 -7.40292,-8.25832 -13.61395,-15.47399 l -11.29163,-13.11947 -10.46521,11.69518 c -15.94663,17.8206 -140.34855,162.15749 -168.6205,195.6415 -13.73211,16.2638 -26.04203,30.16076 -27.35558,30.88225 -8.0661,4.43121 5.53231,5.42752 103.53098,7.58492 l 105.99598,2.3338 -42.29792,56.96145 -42.29773,56.96145 -162.0976,-2.72741 -162.0976,-2.72762 17.9424,-18.72934 17.9431,-18.72941 135.03728,1.72655 135.03819,1.72676 15.89119,-20.5121 c 8.73985,-11.28155 15.8991,-20.91425 15.90855,-21.40593 0,-0.49182 -50.42261,-1.98961 -112.07224,-3.32892 l -112.08939,-2.43488 28.78925,-32.55455 c 15.83512,-17.90502 44.53715,-50.75616 63.78519,-73.0023 120.94586,-139.78927 196.61168,-225.58883 199.89342,-226.66431 1.00268,-0.32879 12.75029,11.67075 26.10608,26.6651 l 24.28461,27.26234 2.08985,-75.72383 c 1.1452,-41.64804 1.6919,-76.10071 1.21688,-76.56171 -0.48349,-0.4607 -4.36898,0.5345 -8.6429,2.2116 -4.27315,1.6769 -18.63239,6.3367 -31.9095,10.3547 -35.59444,10.7724 -122.781,39.38187 -124.70243,40.92033 -0.9128,0.73094 14.74865,6.89738 34.80414,13.70292 l 36.46428,12.37369 -17.13742,17.6904 C 682.6956,313.62232 639.80723,358.85982 598.41357,402.95198 538.252,467.03544 429.37862,583.27622 412.0399,601.9364 c -10.11542,10.88822 -35.52444,38.08035 -56.46529,60.42673 -43.8221,46.7663 -124.93215,134.2684 -150.58995,162.4567 -24.26998,26.66377 -35.54432,30.95827 -48.53058,18.48637 z"
       id="path4-0"
       sodipodi:nodetypes="sssscccsscccsscscsscscsssssssscssssssssscsssscccccccccscscsssscccsssscsssssss" /></g></svg>
