<?xml version="1.0" encoding="UTF-8" standalone="no"?>
<!-- Created with Inkscape (http://www.inkscape.org/) -->

<svg
   width="3000mm"
   height="3000mm"
   viewBox="0 0 3000 3000"
   version="1.1"
   id="svg1"
   inkscape:version="1.4.3 (0d15f75, 2025-12-25)"
   sodipodi:docname="zaporion-stacked-icon.svg"
   inkscape:export-filename="zaporion_stacked_300×300-72dpi.png"
   inkscape:export-xdpi="2.54"
   inkscape:export-ydpi="2.54"
   inkscape:export-batch-name="zaporion-logo-icon"
   inkscape:export-batch-path="/Users/dvpandian/daniel/zaporion/zaplogokit"
   xmlns:inkscape="http://www.inkscape.org/namespaces/inkscape"
   xmlns:sodipodi="http://sodipodi.sourceforge.net/DTD/sodipodi-0.dtd"
   xmlns:xlink="http://www.w3.org/1999/xlink"
   xmlns="http://www.w3.org/2000/svg"
   xmlns:svg="http://www.w3.org/2000/svg">
  <sodipodi:namedview
     id="namedview1"
     pagecolor="#ffffff"
     bordercolor="#000000"
     borderopacity="0.25"
     inkscape:showpageshadow="2"
     inkscape:pageopacity="0.0"
     inkscape:pagecheckerboard="0"
     inkscape:deskcolor="#d1d1d1"
     inkscape:document-units="mm"
     showgrid="true"
     inkscape:zoom="0.032756265"
     inkscape:cx="1740.1251"
     inkscape:cy="8242.698"
     inkscape:window-width="1728"
     inkscape:window-height="969"
     inkscape:window-x="0"
     inkscape:window-y="38"
     inkscape:window-maximized="1"
     inkscape:current-layer="layer1">
    <inkscape:grid
       id="grid9"
       units="mm"
       originx="0"
       originy="0"
       spacingx="0.99999997"
       spacingy="0.99999997"
       empcolor="#0099e5"
       empopacity="0.30196078"
       color="#0099e5"
       opacity="0.14901961"
       empspacing="5"
       enabled="true"
       visible="true" />
  </sodipodi:namedview>
  <defs
     id="defs1">
    <linearGradient
       inkscape:collect="always"
       xlink:href="#linearGradient30"
       id="linearGradient31"
       x1="104.03867"
       y1="875.59607"
       x2="904.0387"
       y2="96.13324"
       gradientUnits="userSpaceOnUse"
       gradientTransform="matrix(3.2500001,0,0,3.2500001,-124.99984,-124.99992)" />
    <linearGradient
       id="linearGradient30"
       inkscape:collect="always">
      <stop
         style="stop-color:#003264;stop-opacity:1;"
         offset="0"
         id="stop30" />
      <stop
         style="stop-color:#0064c8;stop-opacity:1;"
         offset="1"
         id="stop31" />
    </linearGradient>
  </defs>
  <g
     inkscape:label="Layer 1"
     inkscape:groupmode="layer"
     id="layer1">
    <path
       style="fill:url(#linearGradient31);stroke-width:30.8688;stroke-dasharray:none"
       d="m 223.94706,2775.131 c -14.69104,-14.1092 -24.1892,-31.6687 -23.94236,-44.2608 0.38324,-19.8451 64.77588,-155.298 326.20562,-686.2684 63.33964,-128.6418 176.45212,-358.4441 251.36124,-510.6711 l 136.19528,-276.7764 -354.59112,-8.0171 -354.59008,-8.0159 79.55662,-102.7357 C 365.14604,1033.785 495.28514,877.89781 539.89152,832.03485 l 24.6636,-25.35936 578.72808,11.9301 578.7277,11.93062 -90.4625,137.3242 c -107.4515,163.11619 -206.2391,295.36489 -308.6376,413.16919 -83.0888,95.59 -174.9826,193.5199 -174.8415,186.3221 0,-5.5728 187.0434,-349.4698 278.5426,-512.4248 35.6541,-63.48995 64.8501,-116.94543 64.8855,-118.79013 0,-6.15576 -835.60662,-17.2692 -846.25596,-11.25358 -5.7642,3.25806 -45.53952,47.63798 -88.38778,98.62221 l -77.9051,92.6964 338.83122,7.7548 c 186.36042,4.2646 338.79962,9.4806 338.76102,11.5888 0,4.6846 -246.39238,509.3714 -340.52174,697.7544 -37.49174,75.0318 -90.0302,180.2727 -116.75352,233.8678 -26.72358,53.5954 -63.85548,124.6046 -82.52088,157.7985 -18.6628,33.1939 -31.1948,60.19 -27.846,59.9911 3.34516,-0.208 25.90822,-21.9284 50.13606,-48.2882 249.17022,-271.0769 684.26098,-732.2977 1186.65508,-1257.92603 131.6438,-137.73318 238.1938,-253.8601 236.7696,-258.05988 -2.7592,-8.1198 -163.451,-67.21962 -323.9831,-119.14396 l -96.9524,-31.36094 34.6398,-12.94125 c 47.1403,-17.61214 358.0808,-117.63128 530.6542,-170.69494 129.7832,-39.90532 390.7,-124.58864 519.0679,-168.46663 29.4242,-10.0587 59.2234,-18.19186 66.2226,-18.07411 11.2405,0.17862 10.8297,64.15456 -3.5347,548.25041 -8.93,301.42063 -16.7183,548.63903 -17.2796,549.37483 -0.5456,0.7364 -47.7148,-51.0191 -104.7923,-115.0104 -57.0744,-63.9912 -107.6533,-120.2824 -112.3905,-125.0921 -4.7414,-4.81 -27.4966,-30.6737 -50.5661,-57.4748 l -41.9403,-48.72947 -38.8707,43.43924 c -59.2305,66.19083 -521.2947,602.29933 -626.3048,726.66843 -51.0049,60.4084 -96.7275,112.0258 -101.6064,114.7055 -29.9598,16.4589 20.5487,20.1594 384.5436,28.1726 l 393.6994,8.6684 -157.1066,211.5711 -157.1057,211.5711 -602.0768,-10.1303 -602.07696,-10.1312 66.64316,-69.5662 66.6459,-69.5663 501.5671,6.4129 501.5703,6.4136 59.0245,-76.1878 c 32.4623,-41.9029 59.0538,-77.6815 59.0889,-79.5077 0,-1.8268 -187.2839,-7.3899 -416.2684,-12.3646 l -416.3319,-9.0438 106.9315,-120.9169 c 58.8162,-66.5044 165.4237,-188.5228 236.9163,-271.1514 449.2276,-519.2173 730.272,-837.90141 742.4612,-841.89605 3.7244,-1.22122 47.3583,43.3485 96.9656,99.0418 l 90.1999,101.26012 7.7623,-281.25994 c 4.2536,-154.69273 6.2842,-282.65979 4.5198,-284.37189 -1.7957,-1.71106 -16.2276,1.9851 -32.1022,8.21444 -15.8717,6.22856 -69.2059,23.53624 -118.521,38.46024 -132.2078,40.01192 -456.0436,146.27549 -463.1803,151.98977 -3.3904,2.71492 54.7807,25.61884 129.2724,50.89656 l 135.4388,45.95942 -63.6532,65.7072 c -71.0668,73.36212 -230.3665,241.38712 -384.1145,405.15803 -223.4571,238.0242 -627.8441,669.7758 -692.2449,739.085 -37.5717,40.442 -131.9481,141.4413 -209.72838,224.4421 -162.7678,173.7034 -464.0337,498.7112 -559.3341,603.4106 -90.14564,99.0369 -132.02176,114.9879 -180.25644,68.6637 z"
       id="path4"
       sodipodi:nodetypes="sssscccsscccsscscsscscsssssssscssssssssscsssscccccccccscscsssscccsssscsssssss" />
    <rect
       style="fill:#000000;fill-opacity:0;stroke-width:2.858;paint-order:markers fill stroke"
       id="rect1"
       width="3000"
       height="3000"
       x="0"
       y="0" />
  </g>
</svg>
