<?xml version="1.0" encoding="UTF-8" standalone="no"?>
<!-- Created with Inkscape (http://www.inkscape.org/) -->

<svg
   width="3000mm"
   height="3000mm"
   viewBox="0 0 3000 3000"
   version="1.1"
   id="svg1"
   inkscape:version="1.4.3 (0d15f75, 2025-12-25)"
   sodipodi:docname="zaporion-stacked-logo-dark.svg"
   inkscape:export-filename="zaporion_stacked_300×300-72dpi.png"
   inkscape:export-xdpi="2.54"
   inkscape:export-ydpi="2.54"
   xml:space="preserve"
   xmlns:inkscape="http://www.inkscape.org/namespaces/inkscape"
   xmlns:sodipodi="http://sodipodi.sourceforge.net/DTD/sodipodi-0.dtd"
   xmlns:xlink="http://www.w3.org/1999/xlink"
   xmlns="http://www.w3.org/2000/svg"
   xmlns:svg="http://www.w3.org/2000/svg"><sodipodi:namedview
     id="namedview1"
     pagecolor="#ffffff"
     bordercolor="#000000"
     borderopacity="0.25"
     inkscape:showpageshadow="2"
     inkscape:pageopacity="0.0"
     inkscape:pagecheckerboard="0"
     inkscape:deskcolor="#d1d1d1"
     inkscape:document-units="mm"
     showgrid="true"
     inkscape:zoom="0.032756265"
     inkscape:cx="12180.876"
     inkscape:cy="5281.4324"
     inkscape:window-width="1728"
     inkscape:window-height="971"
     inkscape:window-x="0"
     inkscape:window-y="38"
     inkscape:window-maximized="1"
     inkscape:current-layer="layer1"><inkscape:grid
       id="grid9"
       units="mm"
       originx="0"
       originy="0"
       spacingx="0.99999997"
       spacingy="0.99999997"
       empcolor="#0099e5"
       empopacity="0.30196078"
       color="#0099e5"
       opacity="0.14901961"
       empspacing="5"
       enabled="true"
       visible="true" /></sodipodi:namedview><defs
     id="defs1"><linearGradient
       id="linearGradient357"><stop
         style="stop-color:#003296;stop-opacity:1;"
         offset="0"
         id="stop356" /><stop
         style="stop-color:#64c8fa;stop-opacity:1;"
         offset="1"
         id="stop357" /></linearGradient><linearGradient
       id="linearGradient351"
       inkscape:swatch="gradient"><stop
         style="stop-color:#0064c8;stop-opacity:1;"
         offset="0"
         id="stop351" /><stop
         style="stop-color:#0064c8;stop-opacity:0;"
         offset="1"
         id="stop352" /></linearGradient><linearGradient
       id="swatch32"><stop
         style="stop-color:#3296fa;stop-opacity:1;"
         offset="0"
         id="stop32" /><stop
         style="stop-color:#96fafa;stop-opacity:1;"
         offset="1"
         id="stop33" /></linearGradient><linearGradient
       id="linearGradient30"
       inkscape:swatch="gradient"><stop
         style="stop-color:#003264;stop-opacity:1;"
         offset="0"
         id="stop30" /><stop
         style="stop-color:#0064c8;stop-opacity:1;"
         offset="1"
         id="stop31" /></linearGradient><linearGradient
       inkscape:collect="always"
       xlink:href="#swatch32"
       id="linearGradient270"
       gradientUnits="userSpaceOnUse"
       x1="666.67004"
       y1="2247.6006"
       x2="654.7113"
       y2="1859.2158" /><linearGradient
       inkscape:collect="always"
       xlink:href="#swatch32"
       id="linearGradient350"
       gradientUnits="userSpaceOnUse"
       x1="1984.8479"
       y1="2213.1157"
       x2="1984.9261"
       y2="1830.4426" /><linearGradient
       inkscape:collect="always"
       xlink:href="#swatch32"
       id="linearGradient353"
       gradientUnits="userSpaceOnUse"
       x1="1406.672"
       y1="2496.501"
       x2="1399.3219"
       y2="2370.8472" /><linearGradient
       inkscape:collect="always"
       xlink:href="#linearGradient357"
       id="linearGradient355"
       gradientUnits="userSpaceOnUse"
       gradientTransform="matrix(1.25,0,0,1.25,875.00006,357.11137)"
       x1="104.03867"
       y1="875.59607"
       x2="904.0387"
       y2="96.13324" /></defs><g
     inkscape:label="Layer 1"
     inkscape:groupmode="layer"
     id="layer1"><rect
       style="fill:#000032;fill-opacity:1;stroke-width:2.858;paint-order:markers fill stroke"
       id="rect1"
       width="3000"
       height="3000"
       x="0"
       y="0" /><path
       style="fill:url(#linearGradient355);stroke-width:11.8726;stroke-dasharray:none"
       d="m 1009.2104,1472.5463 c -5.6504,-5.4266 -9.30354,-12.1803 -9.2086,-17.0234 0.1474,-7.6327 24.9138,-59.73 125.4637,-263.9494 24.3614,-49.4776 67.8662,-137.8631 96.6774,-196.41197 l 52.3828,-106.45238 -136.3812,-3.0835 -136.3808,-3.0831 30.5987,-39.5137 c 31.1553,-40.231 81.2088,-100.1876 98.3651,-117.8272 l 9.486,-9.7536 222.5877,4.5885 222.5876,4.5887 -34.7933,52.817 c -41.3275,62.737 -79.3227,113.6019 -118.7068,158.9112 -31.9572,36.7654 -67.301,74.43075 -67.2467,71.66235 0,-2.1434 71.9398,-134.41145 107.1318,-197.08645 13.7131,-24.4192 24.9423,-44.979 24.9559,-45.6885 0,-2.3676 -321.3871,-6.642 -325.483,-4.3283 -2.217,1.2531 -17.5152,18.3223 -33.9953,37.9316 l -29.9635,35.6525 130.3197,2.9826 c 71.6771,1.6402 130.3075,3.6464 130.2927,4.4572 0,1.8018 -94.7663,195.91205 -130.9699,268.36705 -14.4199,28.8584 -34.627,69.3357 -44.9052,89.9492 -10.2783,20.6136 -24.5598,47.9248 -31.7388,60.6917 -7.178,12.7669 -11.998,23.15 -10.71,23.0735 1.2866,-0.08 9.9647,-8.434 19.2831,-18.5724 95.8347,-104.2603 263.1773,-281.65295 456.4058,-483.81765 50.6322,-52.9743 91.613,-97.6385 91.0652,-99.2538 -1.0612,-3.123 -62.8658,-25.8537 -124.6089,-45.8246 l -37.2894,-12.0619 13.323,-4.9774 c 18.1309,-6.7739 137.7234,-45.2428 204.0978,-65.6519 49.9166,-15.3482 150.2692,-47.9187 199.6415,-64.79485 11.317,-3.86873 22.7782,-6.99687 25.4702,-6.95158 4.3233,0.0687 4.1653,24.67483 -1.3595,210.86553 -3.4346,115.931 -6.4301,211.015 -6.646,211.298 -0.2098,0.2832 -18.3518,-19.6227 -40.3047,-44.2348 -21.9517,-24.612 -41.4051,-46.2624 -43.2271,-48.1123 -1.8236,-1.85 -10.5756,-11.7976 -19.4485,-22.1057 l -16.1309,-18.7421 -14.9503,16.7074 c -22.7809,25.458 -200.4979,231.65355 -240.8864,279.48785 -19.6173,23.234 -37.2029,43.0868 -39.0794,44.1175 -11.523,6.3303 7.9033,7.7536 147.9014,10.8356 l 151.4228,3.334 -60.4256,81.3735 -60.4253,81.3735 -231.568,-3.8963 -231.568,-3.8966 25.632,-26.7562 25.633,-26.7563 192.9104,2.4665 192.9117,2.4668 22.7017,-29.303 c 12.4855,-16.1165 22.713,-29.8775 22.7265,-30.5799 0,-0.7026 -72.0323,-2.8423 -160.1032,-4.7556 l -160.1277,-3.4784 41.1275,-46.5065 c 22.6216,-25.5786 63.6245,-72.5088 91.1217,-104.289 172.7798,-199.69895 280.8738,-322.26975 285.562,-323.80615 1.4324,-0.4697 18.2147,16.6725 37.2944,38.093 l 34.6923,38.9462 2.9855,-108.1769 c 1.636,-59.4972 2.417,-108.7153 1.7384,-109.3738 -0.6907,-0.6581 -6.2414,0.7635 -12.347,3.1594 -6.1045,2.3956 -26.6177,9.0524 -45.585,14.7924 -50.8492,15.3892 -175.4014,56.2598 -178.1463,58.4576 -1.304,1.0442 21.0695,9.8534 49.7202,19.5756 l 52.0918,17.6767 -24.482,25.272 c -27.3334,28.2162 -88.6025,92.8412 -147.7363,155.83 -85.9451,91.5478 -241.4785,257.60605 -266.2481,284.26345 -14.4506,15.5546 -50.7492,54.4005 -80.6647,86.3239 -62.603,66.809 -178.4745,191.812 -215.1285,232.081 -34.6714,38.0911 -50.7776,44.2261 -69.3294,26.4091 z"
       id="path4"
       sodipodi:nodetypes="sssscccsscccsscscsscscsssssssscssssssssscsssscccccccccscscsssscccsssscsssssss" /><text
       xml:space="preserve"
       style="font-style:normal;font-variant:normal;font-weight:bold;font-stretch:normal;font-size:528.073px;line-height:0.8;font-family:'Avenir Next';-inkscape-font-specification:'Avenir Next, Bold';font-variant-ligatures:normal;font-variant-caps:normal;font-variant-numeric:normal;font-variant-east-asian:normal;letter-spacing:0.00388109px;writing-mode:lr-tb;direction:ltr;display:inline;mix-blend-mode:normal;fill:url(#linearGradient270);fill-rule:nonzero;stroke-width:13.9327"
       x="137.7485"
       y="2223.2114"
       id="text2"><tspan
         sodipodi:role="line"
         id="tspan2"
         style="font-style:normal;font-variant:normal;font-weight:bold;font-stretch:normal;font-size:528.073px;font-family:'Avenir Next';-inkscape-font-specification:'Avenir Next, Bold';font-variant-ligatures:normal;font-variant-caps:normal;font-variant-numeric:normal;font-variant-east-asian:normal;fill:url(#linearGradient270);fill-rule:nonzero;stroke-width:13.9327"
         x="137.7485"
         y="2223.2114">ZAP</tspan></text><text
       xml:space="preserve"
       style="font-style:normal;font-variant:normal;font-weight:normal;font-stretch:normal;font-size:518.432px;line-height:0.8;font-family:'Avenir Next';-inkscape-font-specification:'Avenir Next, Normal';font-variant-ligatures:normal;font-variant-caps:normal;font-variant-numeric:normal;font-variant-east-asian:normal;letter-spacing:0.00381022px;writing-mode:lr-tb;direction:ltr;fill:url(#linearGradient350);fill-opacity:1;stroke-width:13.678;stroke-dasharray:none"
       x="1167.6237"
       y="2219.583"
       id="text3"><tspan
         sodipodi:role="line"
         id="tspan3"
         style="font-style:normal;font-variant:normal;font-weight:normal;font-stretch:normal;font-size:518.432px;font-family:'Avenir Next';-inkscape-font-specification:'Avenir Next, Normal';font-variant-ligatures:normal;font-variant-caps:normal;font-variant-numeric:normal;font-variant-east-asian:normal;fill:url(#linearGradient350);fill-opacity:1;stroke-width:13.678;stroke-dasharray:none"
         x="1167.6237"
         y="2219.583">ORION</tspan></text><text
       xml:space="preserve"
       style="font-style:normal;font-variant:normal;font-weight:500;font-stretch:normal;font-size:180.323px;line-height:0.8;font-family:'Avenir Next';-inkscape-font-specification:'Avenir Next, Medium';font-variant-ligatures:normal;font-variant-caps:normal;font-variant-numeric:normal;font-variant-east-asian:normal;letter-spacing:0.00113712px;writing-mode:lr-tb;direction:ltr;fill:url(#linearGradient353);fill-opacity:1;stroke-width:4.08287;stroke-dasharray:none;paint-order:markers fill stroke"
       x="403.06796"
       y="2514.6428"
       id="text4"><tspan
         sodipodi:role="line"
         id="tspan4"
         style="font-style:normal;font-variant:normal;font-weight:500;font-stretch:normal;font-size:180.323px;font-family:'Avenir Next';-inkscape-font-specification:'Avenir Next, Medium';font-variant-ligatures:normal;font-variant-caps:normal;font-variant-numeric:normal;font-variant-east-asian:normal;fill:url(#linearGradient353);fill-opacity:1;stroke-width:4.08287;stroke-dasharray:none;paint-order:markers fill stroke"
         x="403.06796"
         y="2514.6428">INNOVATION AT SPEED</tspan></text></g></svg>
