<?xml version="1.0" encoding="UTF-8" standalone="no"?>
<!-- Created with Inkscape (http://www.inkscape.org/) -->

<svg
   width="3000mm"
   height="1000mm"
   viewBox="0 0 3000 1000"
   version="1.1"
   id="svg1"
   xml:space="preserve"
   sodipodi:docname="zaporion-horizontal-logo.svg"
   inkscape:version="1.4.3 (0d15f75, 2025-12-25)"
   inkscape:export-filename="zaporion_horizontal_1200×400-72dpi.png"
   inkscape:export-xdpi="10.16"
   inkscape:export-ydpi="10.16"
   inkscape:export-batch-name="zaporion-horizontal-"
   inkscape:export-batch-path="/Users/dvpandian/daniel/zaporion/zaplogokit"
   xmlns:inkscape="http://www.inkscape.org/namespaces/inkscape"
   xmlns:sodipodi="http://sodipodi.sourceforge.net/DTD/sodipodi-0.dtd"
   xmlns:xlink="http://www.w3.org/1999/xlink"
   xmlns="http://www.w3.org/2000/svg"
   xmlns:svg="http://www.w3.org/2000/svg"><sodipodi:namedview
     id="namedview1"
     pagecolor="#ffffff"
     bordercolor="#000000"
     borderopacity="0.25"
     inkscape:showpageshadow="2"
     inkscape:pageopacity="0.0"
     inkscape:pagecheckerboard="0"
     inkscape:deskcolor="#d1d1d1"
     inkscape:document-units="mm"
     showgrid="true"
     inkscape:zoom="0.088388348"
     inkscape:cx="3252.6912"
     inkscape:cy="1940.301"
     inkscape:window-width="1691"
     inkscape:window-height="920"
     inkscape:window-x="0"
     inkscape:window-y="38"
     inkscape:window-maximized="0"
     inkscape:current-layer="layer1"
     inkscape:export-bgcolor="#ffffff5d"><inkscape:grid
       id="grid1"
       units="mm"
       originx="0"
       originy="0"
       spacingx="0.99999997"
       spacingy="0.99999999"
       empcolor="#0099e5"
       empopacity="0.30196078"
       color="#0099e5"
       opacity="0.14901961"
       empspacing="5"
       enabled="true"
       visible="true" /></sodipodi:namedview><defs
     id="defs1"><linearGradient
       id="swatch13"><stop
         style="stop-color:#0064c8;stop-opacity:1;"
         offset="0"
         id="stop13" /><stop
         style="stop-color:#003264;stop-opacity:1;"
         offset="1"
         id="stop17" /></linearGradient><linearGradient
       id="swatch12"
       inkscape:swatch="solid"><stop
         style="stop-color:#003264;stop-opacity:1;"
         offset="0"
         id="stop12" /></linearGradient><linearGradient
       id="swatch11"
       inkscape:swatch="solid"><stop
         style="stop-color:#0064c8;stop-opacity:1;"
         offset="0"
         id="stop11" /></linearGradient><color-profile
       name="sRGB-IEC61966-2.1"
       xlink:href="file:///System/Library/ColorSync/Profiles/sRGB%20Profile.icc"
       id="color-profile1" /><linearGradient
       id="linearGradient42"
       inkscape:collect="always"><stop
         style="stop-color:#003264;stop-opacity:1;"
         offset="0"
         id="stop42" /><stop
         style="stop-color:#0064c8;stop-opacity:1;"
         offset="1"
         id="stop43" /></linearGradient><rect
       x="3632.8928"
       y="-228.96383"
       width="7067.3503"
       height="3297.0792"
       id="rect35" /><rect
       x="4045.0277"
       y="747.94852"
       width="5449.3392"
       height="1694.3324"
       id="rect33" /><rect
       x="3678.6856"
       y="442.66341"
       width="6472.0443"
       height="2396.4881"
       id="rect32" /><rect
       x="3739.7426"
       y="412.1349"
       width="6792.5937"
       height="2014.8817"
       id="rect31" /><linearGradient
       id="linearGradient30"
       inkscape:collect="always"><stop
         style="stop-color:#003264;stop-opacity:1;"
         offset="0"
         id="stop30" /><stop
         style="stop-color:#0064c8;stop-opacity:1;"
         offset="1"
         id="stop31" /></linearGradient><linearGradient
       id="swatch25"><stop
         style="stop-color:#003264;stop-opacity:1;"
         offset="0"
         id="stop26" /></linearGradient><linearGradient
       id="linearGradient13"><stop
         style="stop-color:#003264;stop-opacity:1;"
         offset="0"
         id="stop15" /><stop
         style="stop-color:#0664b4;stop-opacity:0;"
         offset="1"
         id="stop16" /></linearGradient><linearGradient
       inkscape:collect="always"
       xlink:href="#linearGradient30"
       id="linearGradient31"
       x1="104.03867"
       y1="875.59607"
       x2="904.0387"
       y2="96.13324"
       gradientUnits="userSpaceOnUse"
       gradientTransform="matrix(0.87500003,0,0,0.87500003,62.499997,62.499999)" /><linearGradient
       inkscape:collect="always"
       xlink:href="#linearGradient42"
       id="linearGradient43"
       x1="2932.0728"
       y1="246.35872"
       x2="1704.3177"
       y2="258.47473"
       gradientUnits="userSpaceOnUse"
       gradientTransform="translate(-8.5214977,20.193338)" /></defs><g
     inkscape:label="Layer 1"
     inkscape:groupmode="layer"
     id="layer1"><path
       style="fill:url(#linearGradient31);stroke-width:8.31075;stroke-dasharray:none"
       d="m 156.44727,843.30463 c -3.95524,-3.79874 -6.51251,-8.52626 -6.446,-11.91647 0.10316,-5.34287 17.43966,-41.81095 87.82457,-184.76459 17.05297,-34.63432 47.50638,-96.50416 67.67417,-137.48838 l 36.66801,-74.51676 -95.46688,-2.15829 -95.46657,-2.15822 21.41908,-27.65965 c 21.80877,-28.16168 56.84622,-70.13138 68.85559,-82.479 l 6.6402,-6.82768 155.81143,3.21209 155.81135,3.212 -24.35537,36.97187 c -28.92925,43.91598 -55.52584,79.52132 -83.09472,111.23796 -22.37008,25.73576 -47.11071,52.10144 -47.07273,50.16364 0,-1.50031 50.35791,-94.0881 74.99231,-137.96058 9.59911,-17.09346 17.45958,-31.48532 17.46912,-31.98191 0,-1.65732 -224.971,-4.64939 -227.83811,-3.02974 -1.5519,0.87719 -12.26068,12.82557 -23.79676,26.55194 l -20.97445,24.95694 91.22382,2.08767 c 50.17399,1.14827 91.21526,2.5526 91.20493,3.12013 0,1.26118 -66.33646,137.13848 -91.679,187.85702 -10.09391,20.20087 -24.2389,48.5349 -31.43359,62.96436 -7.19486,14.42955 -17.19191,33.54741 -22.21721,42.48421 -5.0246,8.93678 -8.3986,16.20497 -7.497,16.15147 0.90063,-0.056 6.97532,-5.90376 13.49819,-13.00064 67.08432,-72.98228 184.22416,-197.15717 319.48412,-338.67246 35.44249,-37.08199 64.1291,-68.34698 63.74559,-69.47772 -0.74279,-2.18613 -44.00603,-18.09759 -87.22622,-32.07718 l -26.10256,-8.44331 9.3261,-3.48427 c 12.69161,-4.74167 96.40637,-31.66992 142.86843,-45.9563 34.94164,-10.74374 105.18847,-33.54302 139.74913,-45.3564 7.9219,-2.70806 15.94478,-4.89779 17.82918,-4.86604 3.02619,0.048 2.91559,17.27246 -0.95174,147.60589 -2.40415,81.1517 -4.50109,147.71044 -4.6522,147.90854 -0.14682,0.19835 -12.84623,-13.73581 -28.21324,-30.96428 -15.36622,-17.22838 -28.98359,-32.38381 -30.25899,-33.67874 -1.27653,-1.29493 -7.40293,-8.25816 -13.61395,-15.4739 l -11.29169,-13.11941 -10.46517,11.69514 c -15.94662,17.82065 -140.34852,162.1575 -168.62047,195.6415 -13.73216,16.26377 -26.0421,30.16081 -27.35565,30.88222 -8.0661,4.43128 5.53236,5.42756 103.53105,7.58499 l 105.99593,2.33385 -42.29794,56.96141 -42.29768,56.96143 -162.0976,-2.72742 -162.09761,-2.72751 17.9424,-18.72943 17.9431,-18.72942 135.03727,1.72665 135.03823,1.72666 15.89114,-20.51206 c 8.73985,-11.28167 15.8991,-20.91436 15.90855,-21.40598 0,-0.49186 -50.42258,-1.98955 -112.07219,-3.32895 l -112.08943,-2.43478 28.78925,-32.55464 c 15.83514,-17.90501 44.53715,-50.75614 63.78523,-73.00228 120.94583,-139.78929 196.61163,-225.58885 199.8934,-226.6644 1.00267,-0.32869 12.75032,11.67085 26.10606,26.66512 l 24.28466,27.2624 2.08985,-75.72379 c 1.1452,-41.64811 1.6919,-76.10081 1.21686,-76.56164 -0.48352,-0.46067 -4.36896,0.53426 -8.6429,2.2114 -4.27315,1.67707 -18.63242,6.33677 -31.9095,10.35481 -35.59446,10.77245 -122.78104,39.38183 -124.70245,40.92022 -0.9128,0.731 14.74865,6.8975 34.80417,13.70303 l 36.46423,12.37361 -17.1374,17.69043 c -19.13337,19.75138 -62.02176,64.98885 -103.41538,109.08102 -60.16159,64.08341 -169.03496,180.32425 -186.3737,198.9845 -10.11543,10.88818 -35.52447,38.08027 -56.46532,60.42672 -43.8221,46.76626 -124.93216,134.26838 -150.58996,162.45669 -24.26996,26.66377 -35.54434,30.95827 -48.53054,18.48636 z"
       id="path4"
       sodipodi:nodetypes="sssscccsscccsscscsscscsssssssscssssssssscsssscccccccccscscsssscccsssscsssssss" /><text
       xml:space="preserve"
       style="font-style:normal;font-variant:normal;font-weight:bold;font-stretch:normal;font-size:369.652px;line-height:0.8;font-family:'Avenir Next';-inkscape-font-specification:'Avenir Next, Bold';font-variant-ligatures:normal;font-variant-caps:normal;font-variant-numeric:normal;font-variant-east-asian:normal;letter-spacing:0.00271676px;writing-mode:lr-tb;direction:ltr;fill:#003264;fill-opacity:1;stroke-width:9.75288"
       x="955.58374"
       y="531.95831"
       id="text2"><tspan
         sodipodi:role="line"
         id="tspan2"
         style="font-style:normal;font-variant:normal;font-weight:bold;font-stretch:normal;font-size:369.652px;font-family:'Avenir Next';-inkscape-font-specification:'Avenir Next, Bold';font-variant-ligatures:normal;font-variant-caps:normal;font-variant-numeric:normal;font-variant-east-asian:normal;fill:#003264;fill-opacity:1;stroke-width:9.75288"
         x="955.58374"
         y="531.95831">ZAP</tspan></text><text
       xml:space="preserve"
       style="font-style:normal;font-variant:normal;font-weight:normal;font-stretch:normal;font-size:362.903px;line-height:0.8;font-family:'Avenir Next';-inkscape-font-specification:'Avenir Next, Normal';font-variant-ligatures:normal;font-variant-caps:normal;font-variant-numeric:normal;font-variant-east-asian:normal;letter-spacing:0.00266716px;writing-mode:lr-tb;direction:ltr;fill:#003264;fill-opacity:1;stroke-width:9.57466"
       x="1676.4963"
       y="529.41821"
       id="text3"><tspan
         sodipodi:role="line"
         id="tspan3"
         style="font-style:normal;font-variant:normal;font-weight:normal;font-stretch:normal;font-size:362.903px;font-family:'Avenir Next';-inkscape-font-specification:'Avenir Next, Normal';font-variant-ligatures:normal;font-variant-caps:normal;font-variant-numeric:normal;font-variant-east-asian:normal;fill:#003264;fill-opacity:1;stroke-width:9.57466"
         x="1676.4963"
         y="529.41821">ORION</tspan></text><text
       xml:space="preserve"
       style="font-style:normal;font-variant:normal;font-weight:500;font-stretch:normal;font-size:126.227px;line-height:0.8;font-family:'Avenir Next';-inkscape-font-specification:'Avenir Next, Medium';font-variant-ligatures:normal;font-variant-caps:normal;font-variant-numeric:normal;font-variant-east-asian:normal;letter-spacing:0.000795984px;writing-mode:lr-tb;direction:ltr;fill:#0064c8;fill-opacity:1;stroke-width:2.858;stroke-dasharray:none;paint-order:markers fill stroke"
       x="1141.3074"
       y="735.96027"
       id="text4"><tspan
         sodipodi:role="line"
         id="tspan4"
         style="font-style:normal;font-variant:normal;font-weight:500;font-stretch:normal;font-size:126.22700132px;font-family:'Avenir Next';-inkscape-font-specification:'Avenir Next, Medium';font-variant-ligatures:normal;font-variant-caps:normal;font-variant-numeric:normal;font-variant-east-asian:normal;fill:#0064c8;fill-opacity:1;stroke-width:2.858;stroke-dasharray:none;paint-order:markers fill stroke"
         x="1141.3074"
         y="735.96027">INNOVATION AT SPEED</tspan></text><rect
       style="fill:#000000;stroke-width:2.858;paint-order:markers fill stroke;fill-opacity:0"
       id="rect2"
       width="3000"
       height="1000"
       x="-5.9868374"
       y="8.9802551" /></g></svg>
